<?xml version="1.0" encoding="utf-8"?>
<!-- Generator: Adobe Illustrator 26.2.1, SVG Export Plug-In . SVG Version: 6.00 Build 0)  -->
<svg version="1.1" id="Ebene_1" xmlns="http://www.w3.org/2000/svg" xmlns:xlink="http://www.w3.org/1999/xlink" x="0px" y="0px"
	 viewBox="0 0 255.8 233.4" style="enable-background:new 0 0 255.8 233.4;" xml:space="preserve">
<style type="text/css">
	.st0{fill:#008C48;}
	.st1{fill:#A34A1F;}
	.st2{fill:#75B843;}
	.st3{fill:#EC6726;}
	.st4{fill:#DE007E;}
	.st5{fill:#F18700;}
	.st6{fill:#E4032E;}
	.st7{fill:#706F6F;}
</style>
<g>
	<path class="st0" d="M73.9,99.7c-2.3,0-4.3,0.4-5.9,1.3c-1.6,0.8-2.9,2-3.9,3.5c-1,1.5-1.8,3.3-2.2,5.4c-0.5,2.1-0.7,4.4-0.7,6.9
		c0,5.9,0.9,10.2,2.8,13c1.9,2.8,4.6,4.2,8.2,4.2c0.6,0,1.2,0,1.9-0.1c0.7-0.1,1.3-0.1,1.9-0.2v-17.9h9.8v24.5
		c-1.2,0.4-3,0.9-5.4,1.4c-2.5,0.5-5.4,0.8-8.9,0.8c-3.1,0-5.8-0.5-8.3-1.6c-2.5-1.1-4.6-2.7-6.3-4.8c-1.7-2.1-3.1-4.8-4-8
		c-1-3.2-1.4-6.9-1.4-11.2c0-4.2,0.6-7.9,1.7-11.1c1.1-3.2,2.6-5.9,4.5-8.1c1.9-2.2,4.2-3.8,6.7-4.9c2.6-1.1,5.4-1.6,8.3-1.6
		c1.9,0,3.6,0.1,5.1,0.4c1.5,0.3,2.8,0.6,3.9,1c1.1,0.4,2,0.8,2.7,1.2c0.7,0.4,1.3,0.7,1.6,1l-2.5,7.8c-1.2-0.7-2.6-1.4-4.3-2
		C77.5,100,75.7,99.7,73.9,99.7z"/>
	<path class="st0" d="M105.8,91.7c2.8,0,5.3,0.3,7.6,1c2.3,0.6,4.2,1.6,5.9,2.9c1.6,1.3,2.9,3,3.8,5c0.9,2,1.3,4.4,1.3,7.2
		c0,2.9-0.6,5.5-1.7,7.8c-1.2,2.3-3.1,4.1-5.8,5.3c0.9,1.4,1.9,2.9,2.9,4.6c1,1.7,2,3.4,2.9,5.2c1,1.8,1.9,3.7,2.7,5.5
		c0.9,1.8,1.6,3.6,2.3,5.2h-10.2c-1.2-3.2-2.6-6.2-4.2-9.2c-1.6-2.9-3.3-5.9-5.2-8.9h-5.1v18.1h-9.8V93c1-0.2,2-0.4,3.1-0.6
		c1.1-0.2,2.3-0.3,3.5-0.4c1.2-0.1,2.3-0.1,3.3-0.2C104.1,91.8,105,91.7,105.8,91.7z M114.5,107.8c0-2.6-0.8-4.5-2.4-5.7
		c-1.6-1.2-3.7-1.8-6.3-1.8c-0.4,0-0.8,0-1.3,0c-0.5,0-1.1,0.1-1.6,0.2v14.8h2.1c3.3,0,5.7-0.6,7.2-1.9
		C113.7,112,114.5,110.2,114.5,107.8z"/>
	<g>
		<path class="st0" d="M155.4,122.9c0,2.1-0.1,3.8-0.3,5.2c-0.2,1.4-0.6,2.5-1.1,3.4c-0.5,0.9-1.2,1.5-2.1,1.9
			c-0.9,0.4-2,0.6-3.4,0.6c-1.4,0-2.5-0.2-3.4-0.6c-0.9-0.4-1.6-1-2.1-1.8c-0.5-0.8-0.9-2-1.1-3.4c-0.2-1.4-0.3-3.1-0.3-5.2v-18.4
			h-9.8v19c0,2.9,0.3,5.5,0.8,7.8c0.5,2.3,1.4,4.3,2.7,6c1.3,1.6,3,2.9,5.1,3.8c2.1,0.9,4.8,1.3,8,1.3c3.2,0,5.9-0.4,8.1-1.3
			c2.2-0.9,3.9-2.1,5.2-3.8c1.3-1.6,2.2-3.6,2.8-6c0.5-2.3,0.8-4.9,0.8-7.8v-19h-9.8V122.9z"/>
		<path class="st0" d="M136.5,101.9c1.3,0,2.4-0.4,3.4-1.2c1-0.8,1.5-2,1.5-3.5c0-1.5-0.5-2.7-1.5-3.6c-1-0.9-2.1-1.3-3.4-1.3
			c-1.3,0-2.5,0.4-3.5,1.3c-1,0.9-1.5,2-1.5,3.6c0,1.5,0.5,2.7,1.5,3.5C134.1,101.5,135.2,101.9,136.5,101.9z"/>
		<path class="st0" d="M155.3,97.1c0,0.3,0,0.5,0.1,0.8v-1.6C155.3,96.6,155.3,96.9,155.3,97.1z"/>
		<path class="st0" d="M160.2,101.9c1.3,0,2.4-0.4,3.4-1.2c1-0.8,1.5-2,1.5-3.5c0-1.5-0.5-2.7-1.5-3.6c-1-0.9-2.1-1.3-3.4-1.3
			c-1.3,0-2.5,0.4-3.5,1.3c-0.8,0.7-1.2,1.6-1.4,2.8v1.6c0.1,1.1,0.6,2,1.4,2.7C157.7,101.5,158.9,101.9,160.2,101.9z"/>
	</g>
	<path class="st0" d="M196.4,141.4c-2.2-5.5-4.6-10.9-7.3-16.3c-2.6-5.4-5.4-10.9-8.5-16.3v32.6h-8.8V92.3h7.9
		c1.5,2.3,3,4.9,4.4,7.6c1.5,2.7,2.9,5.4,4.3,8.1c1.4,2.7,2.7,5.3,3.9,7.9c1.2,2.5,2.2,4.8,3.1,6.7V92.3h8.8v49.1H196.4z"/>
	<path class="st1" d="M76.9,198.7c-0.6-1.9-1.4-3.9-2.5-6c-1.1-2.1-2.3-4.2-3.6-6.3c-1.3-2-2.7-3.9-4.2-5.7
		c-1.5-1.8-2.8-3.3-4.2-4.5v22.5h-9.8v-49.1h9.8v20.4c1.2-1.5,2.4-3.1,3.7-4.9c1.3-1.8,2.5-3.6,3.6-5.4c1.1-1.8,2.2-3.6,3.1-5.3
		c1-1.7,1.7-3.3,2.4-4.8h11c-0.7,1.4-1.6,3.1-2.7,4.9c-1,1.8-2.2,3.7-3.5,5.7c-1.3,2-2.7,4-4.2,6.1c-1.5,2.1-3.1,4-4.7,6
		c1.6,1.6,3.3,3.4,5,5.5c1.7,2.1,3.3,4.3,4.8,6.6c1.5,2.4,2.9,4.8,4.1,7.2c1.2,2.5,2.2,4.9,2.9,7.2H76.9z"/>
	<path class="st1" d="M105.8,149c2.8,0,5.3,0.3,7.6,1c2.3,0.6,4.2,1.6,5.9,2.9c1.6,1.3,2.9,3,3.8,5c0.9,2,1.3,4.4,1.3,7.2
		c0,2.9-0.6,5.5-1.7,7.8c-1.2,2.3-3.1,4.1-5.8,5.3c0.9,1.4,1.9,2.9,2.9,4.6c1,1.7,2,3.4,2.9,5.2c1,1.8,1.9,3.7,2.7,5.5
		c0.9,1.8,1.6,3.6,2.3,5.2h-10.2c-1.2-3.2-2.6-6.2-4.2-9.2c-1.6-2.9-3.3-5.9-5.2-8.9h-5.1v18.1h-9.8v-48.4c1-0.2,2-0.4,3.1-0.6
		c1.1-0.2,2.3-0.3,3.5-0.4c1.2-0.1,2.3-0.1,3.3-0.2C104.1,149,105,149,105.8,149z M114.5,165c0-2.6-0.8-4.5-2.4-5.7
		c-1.6-1.2-3.7-1.8-6.3-1.8c-0.4,0-0.8,0-1.3,0c-0.5,0-1.1,0.1-1.6,0.2v14.8h2.1c3.3,0,5.7-0.6,7.2-1.9
		C113.7,169.2,114.5,167.4,114.5,165z"/>
	<path class="st1" d="M157,198.7l-2.3-11.4h-13.1l-2.2,11.4h-10.2c2.3-9.7,4.7-18.5,7.1-26.5c2.4-8,4.7-15.5,6.9-22.7h10.6
		c2.3,7.2,4.6,14.8,6.9,22.9c2.3,8.1,4.5,16.8,6.7,26.2H157z M148.3,159c-0.5,1.9-1,3.6-1.5,5.3c-0.5,1.7-0.9,3.3-1.3,4.9
		c-0.4,1.6-0.8,3.2-1.1,4.9c-0.3,1.6-0.7,3.3-1,5.1h9.6c-0.3-1.7-0.6-3.4-1-5.1c-0.3-1.6-0.7-3.3-1.1-4.9c-0.4-1.6-0.8-3.3-1.3-4.9
		C149.3,162.7,148.8,160.9,148.3,159z"/>
	<path class="st1" d="M181,149.5c0.4,1.1,0.8,2.5,1.4,4.3c0.6,1.7,1.2,3.6,1.8,5.6c0.6,2,1.3,4,1.9,6.1c0.6,2.1,1.2,4,1.8,5.7
		c0.6-2,1.3-4,2-6.1c0.7-2.1,1.4-4.1,2-6c0.6-1.9,1.2-3.7,1.7-5.4c0.5-1.7,1-3.1,1.4-4.2h8.1c0.4,4.3,0.7,8.5,1.1,12.5
		c0.3,4.1,0.6,8.1,0.9,12.1c0.2,4,0.4,8,0.6,12.1c0.2,4,0.3,8.2,0.4,12.4h-9l0.5-38.2l-6,20.8h-7.1l-5.8-20.8l0.4,38.2h-9
		c0.2-4,0.3-8.2,0.5-12.5c0.2-4.3,0.4-8.7,0.6-12.9c0.2-4.3,0.5-8.4,0.8-12.5c0.3-4,0.6-7.8,1-11.2H181z"/>
	<path class="st0" d="M106.4,55.8c0.5,0.6,1,1.3,1.6,1.7c0.6,0.5,1.2,0.9,1.8,1.4c0.1,0.1,0.2,0.1,0.2,0.2c0.2-0.2,0.4-0.3,0.6-0.5
		c0.6-0.5,1.1-1.3,1.6-2.1c1-1.7,2.5-4.1,5.7-4.1c0.9,0,1.8,0.1,2.6,0.2c-2.3-3.8-5.9-6.2-9.9-6.2c-3.9,0-7.4,2.3-9.7,5.9
		C103.8,52.4,105.2,54.3,106.4,55.8z"/>
	<path class="st0" d="M184.7,54.5l11.5-5.3c0.5-0.2,0.8-0.8,0.7-1.4l-1.5-7.6c-0.1-0.5-0.5-0.9-0.9-1l-7.3-1.9c-0.1,0-0.2,0-0.3,0
		c-0.4,0-0.8,0.2-1,0.5l-7.5,9.7c-0.3,0.4-0.6,0.5-1,0.5c-0.8,0-1.6-0.8-1.2-1.8l3.4-8.5c0.3-0.7-0.1-1.5-0.9-1.7l-5.9-1.4
		c-0.1,0-0.2,0-0.3,0c-0.7,0-1.3,0.6-1.3,1.4c0.3,3.6,0.2,11.8-4.9,17.5c0,0-0.1,0.1-0.1,0.1l-3.9,3.6c0,0-0.1,0.1-0.1,0.1
		l-14.5,10.1c0.6,1.6,0.9,3.3,0.9,5c0,0.3,0,0.6,0,1h10.6l9.1-5.7l0.5-0.3c0,0,0.1-0.1,0.2-0.1c0,0,1.8-1,2.4-1.3
		c0.5-0.3,1-0.5,1.7-0.7c0.7-0.2,1.3-0.4,1.3-0.4c2.6-0.9,5.3-1.2,7.9-1.2c5,0,9.5,1.1,11.8,1.8c0.1,0,0.2,0.1,0.4,0.1
		c0.6,0,1.2-0.5,1.3-1.2l0.6-7.8c0.1-0.8-0.5-1.4-1.3-1.4c-0.1,0-0.1,0-0.2,0l-9.5,1.7c-0.1,0-0.2,0-0.3,0
		C184,57,183.5,55.1,184.7,54.5z"/>
	<path class="st0" d="M106.7,59c-2.2-1.8-3-4.7-6.1-4.7c-0.3,0-0.6,0-0.9,0c-0.4,0-0.8,0.1-1.2,0.1c-0.4,0.1-0.8,0.1-1.2,0.2
		c-3.2,0.8-6,2.9-7.7,5.7c0.3,2.1,0.6,4.3,0.7,6c0,0.1,0.2,3.3,0.2,7h7.7h1.1h1.1h4c-0.9-1.9-1.5-4.1-1.5-6.4c0-3.7,2.8-5.4,5-6.8
		c0,0,0,0,0,0C107.7,59.8,107.2,59.4,106.7,59z"/>
	<path class="st2" d="M129.4,61.6c-1.1-2.3-2.9-4.3-5.1-5.6c-0.4-0.2-0.8-0.5-1.3-0.7c-0.4-0.2-0.8-0.3-1.2-0.5
		c-1.2-0.4-2.5-0.6-3.8-0.6c-3.3,0-3.7,3.6-5.9,5.7c-0.1,0.1-0.2,0.2-0.3,0.3c-0.3,0.2-0.5,0.4-0.8,0.6c-0.3,0.2-0.6,0.4-0.9,0.6
		c-2.3,1.5-4.8,2.7-4.8,5.5c0,2.3,0.6,4.5,1.7,6.4h4.8h1.1h1.1h6.7h1.1h1.1h1.5c0-0.3,0-0.7,0-1C124.3,68,126.3,64,129.4,61.6z"/>
	<path class="st3" d="M88.7,71.4c0-2.4-0.2-4.9-0.4-7.3c-0.1-0.8-0.2-1.6-0.3-2.3c-0.1-0.6-0.2-1.2-0.3-1.7
		c-0.2-1.4-0.5-2.6-0.9-3.8c-1.1-3.8-2.3-4.5-2.8-4.6c-0.7-0.2-1.2-1-1.6-1.9c-0.1-0.2-0.3-0.5-0.4-0.7c-1.3-0.3-1.5,0-1.9,0.8
		c-0.1,0.1-0.2,0.3-0.2,0.5c0.4,1,0.3,1.9-0.6,2.4c0,0-0.5,0.4-0.4,2.7c0.1,2.8,1,6.5,2.1,10.2c2.8,1,4.8,3.7,4.8,6.9
		c0,0.3,0,0.7-0.1,1h1.6h1.1h0.2C88.7,72.7,88.7,72.1,88.7,71.4z"/>
	<path class="st4" d="M72.1,68.9c0.8-1.5,2-2.6,3.6-3.3c-0.9-1.7-2.7-3-4.7-3c-2.9,0-5.3,2.4-5.3,5.3c0.7-0.2,1.5-0.4,2.3-0.4
		C69.4,67.6,70.9,68.1,72.1,68.9z"/>
	<path class="st4" d="M71.2,72.4c0-0.5,0.1-1,0.2-1.5c-0.9-0.8-2.1-1.3-3.5-1.3c-0.7,0-1.3,0.1-1.9,0.4c-0.3,0.1-0.6,0.3-0.9,0.5
		c-0.3,0.2-0.6,0.4-0.8,0.6c-0.7,0.6-1.2,1.4-1.4,2.4H66h1.6h3.7c0,0,0-0.1,0-0.1C71.2,73,71.2,72.7,71.2,72.4z"/>
	<path class="st4" d="M82,68.4c-0.4-0.3-0.8-0.6-1.3-0.9c-0.4-0.2-0.8-0.3-1.2-0.3c-0.3-0.1-0.6-0.1-0.9-0.1c-0.1,0-0.2,0-0.4,0
		c-0.3,0-0.7,0.1-1,0.2c-0.3,0.1-0.7,0.2-1,0.4c-1.2,0.6-2.1,1.5-2.6,2.7c-0.2,0.4-0.3,0.8-0.3,1.3c0,0.2-0.1,0.5-0.1,0.8
		c0,0.1,0,0.3,0,0.4c0,0.2,0,0.4,0.1,0.6H74h0.2H75h0.8h5.8h1.1h1c0,0,0-0.1,0-0.1c0-0.3,0.1-0.6,0.1-0.9
		C83.8,70.8,83.1,69.3,82,68.4z"/>
	<path class="st5" d="M146.1,68.6c-0.1-0.3-0.2-0.7-0.4-1c-0.1-0.3-0.3-0.6-0.4-0.9c-1.2-2.3-3.1-4.1-5.4-5
		c-0.7-0.3-0.6-3.1-0.5-4.7c0.1-0.7-0.5-1.2-1.1-1.2h-3.1c-0.7,0-1.2,0.6-1.1,1.3c0.2,1.6,0.5,4.3,0,4.4c-0.7,0.2-1.4,0.5-2.1,0.9
		c-0.3,0.2-0.6,0.4-0.9,0.6c-0.3,0.2-0.6,0.4-0.8,0.7c-2.3,2.1-3.8,5.3-3.8,8.9c0,0.3,0,0.6,0,0.9c0,0,0,0,0,0.1h2.5h1.1h1.1h5.7
		h1.1h1.3h7.5c0,0,0,0,0-0.1c0-0.3,0-0.6,0-0.9C146.7,71.1,146.5,69.8,146.1,68.6z"/>
	<g>
		<path class="st0" d="M184.7,54.5l11.5-5.3c0.5-0.2,0.8-0.8,0.7-1.4l-1.5-7.6c-0.1-0.5-0.5-0.9-0.9-1l-7.3-1.9c-0.1,0-0.2,0-0.3,0
			c-0.4,0-0.8,0.2-1,0.5l-7.5,9.7c-0.3,0.4-0.6,0.5-1,0.5c-0.8,0-1.6-0.8-1.2-1.8l3.4-8.5c0.3-0.7-0.1-1.5-0.9-1.7l-5.9-1.4
			c-0.1,0-0.2,0-0.3,0c-0.7,0-1.3,0.6-1.3,1.4c0.3,3.6,0.2,11.8-4.9,17.5c0,0-0.1,0.1-0.1,0.1l-3.9,3.6c0,0-0.1,0.1-0.1,0.1
			l-14.5,10.1c0.6,1.6,0.9,3.3,0.9,5c0,0.3,0,0.6,0,1h10.6l9.1-5.7l0.5-0.3c0,0,0.1-0.1,0.2-0.1c0,0,2.2-1.4,5-2.3
			c2.8-1,5.7-1.2,8.4-1.2c5,0,9.5,1.1,11.8,1.8c0.1,0,0.2,0.1,0.4,0.1c0.6,0,1.2-0.5,1.3-1.2l0.6-7.8c0.1-0.8-0.5-1.4-1.3-1.4
			c-0.1,0-0.1,0-0.2,0l-9.5,1.7c-0.1,0-0.2,0-0.3,0C184,57,183.5,55.1,184.7,54.5z"/>
	</g>
	<polygon class="st1" points="155.6,77.4 137.6,77.4 127.3,77.4 125.9,77.4 124.3,77.4 119.1,77.4 117.6,77.4 116.1,77.4 
		110.1,77.4 109.5,77.4 108.6,77.4 107.9,77.4 107,77.4 106.5,77.4 103.1,77.4 101.6,77.4 100.2,77.4 92.3,77.4 90.7,77.4 
		89.5,77.4 89.2,77.4 88.5,77.4 87.5,77.4 84.5,77.4 83.4,77.4 82.9,77.4 82.3,77.4 81.4,77.4 79.3,77.4 75.8,77.4 73.8,77.4 
		73.7,77.4 72.7,77.4 72.2,77.4 71.6,77.4 62.2,77.4 61.1,77.4 60,77.4 51.3,77.4 51.3,81.7 64.1,81.7 69.7,81.7 84.6,81.7 
		85.8,81.7 87.8,81.7 88.8,81.7 98.1,81.7 101.2,81.7 108.4,81.7 110.9,81.7 115.4,81.7 118.4,81.7 204.5,81.7 204.5,77.4 	"/>
	<path class="st6" d="M183.7,70.9c0-1.9-0.5-3.6-1.3-5.1c-2.9,0-5.5,0.4-7.7,1.1c-2.5,0.9-4.5,2.1-4.5,2.1l-0.1,0.1l-0.1,0l-0.5,0.3
		l-6.4,4h20.3C183.6,72.6,183.7,71.8,183.7,70.9z"/>
</g>
</svg>
