<?xml version="1.0" encoding="utf-8"?>
<!-- Generator: Adobe Illustrator 26.0.2, SVG Export Plug-In . SVG Version: 6.00 Build 0)  -->
<svg version="1.1" id="Layer_1" xmlns="http://www.w3.org/2000/svg" xmlns:xlink="http://www.w3.org/1999/xlink" x="0px" y="0px"
	 viewBox="0 0 504 504" style="enable-background:new 0 0 504 504;" xml:space="preserve">
<path d="M-44-44.1v608h585v-608H-44z M504,377.6c0,69.6-56.8,126.4-126.4,126.4H126C56.8,504,0,447.2,0,378V126.4
	C0,56.8,56.8,0,126,0h251.6C447.2,0,504,56.8,504,126.4V377.6z"/>
<path d="M396-37H107.5C28.1-37-37,28.1-37,108v288.5C-37,475.9,28.1,541,107.5,541H396c79.8,0,145-65.1,145-145V108
	C541,28.1,475.9-37,396-37z M424.9,347c-1.4,2.8-4.6,5.5-10.1,8.3c-7.3,3.7-18.8,6.4-33.9,8.7c-1.4,0.5-2.8,1.4-3.7,2.8
	c-0.9,1.4-1.4,4.6-2.3,8.7l-0.5,2.3c-0.5,1.8-0.9,4.1-1.4,6c-0.9,2.3-2.3,3.7-5,3.7c-1.4,0-3.7,0-7.3-0.9c-5-0.9-11.5-2.3-19.7-2.3
	c-5,0-9.6,0.5-14.2,1.4c-9.6,1.8-18.3,7.3-27.5,13.8c-12.4,8.7-26.1,18.8-47.2,18.8c-0.9,0-1.8,0-2.3,0c-0.5,0-0.5,0-0.9,0
	c-0.5,0-0.9,0-0.9,0c-21.1,0-34.9-10.1-47.7-18.8c-8.7-6-17-11.9-27.1-13.8c-4.6-0.9-9.6-1.4-14.2-1.4c-8.3,0-14.7,1.4-19.3,2.3
	h-0.5c-2.3,0.5-5,0.9-7.3,0.9c-2.8,0-4.6-0.9-5.5-3.7c-1.8-3.2-2.8-5.5-3.2-7.8l-0.5-1.4c-0.9-3.7-1.4-6.9-2.8-8.7
	c-0.5-1.4-1.8-2.3-3.2-2.3c-15.1-2.3-26.6-5.5-34.4-8.7c-5-2.3-8.7-5-10.1-7.8c-0.5-0.9-0.5-1.8-0.5-2.3c0-0.5,0-0.5,0-0.9
	c1.8-1.8,2.8-2.8,4.1-3.2c11.9-1.8,22.9-6.4,32.6-12.8c8.3-5,16.1-11.9,22.9-20.2c11.9-13.8,17.9-27.1,18.8-29.4v-0.5
	c3.2-6,3.7-11.5,1.8-15.6c-3.7-8.3-14.7-11.9-22.5-14.2l-1.4-0.5c-1.4-0.5-2.8-0.9-3.7-1.4c-5.5-2.3-9.6-4.6-11.9-6.9
	c-3.7-3.2-4.1-6.4-3.7-8.3c0.5-2.3,2.3-5,5.5-6.9c4.1-2.3,9.6-3.2,12.8-1.4c10.6,5,19.3,6.4,25.7,3.2c1.8-0.9,2.8-2.8,2.8-4.6
	c0-2.8-0.5-5.5-0.5-8.3v-0.5c-1.4-23.9-3.2-53.7,4.1-70.6c5.5-11.9,12.4-22,21.1-30.3c7.3-6.9,15.6-12.4,25.2-16.5
	c16.5-7.3,31.7-8.3,39.5-8.3h6.9c7.8,0,22.9,0.9,39.5,8.3c9.6,4.1,17.9,9.6,25.2,16.5c8.7,8.3,16.1,18.3,21.1,30.3
	c7.8,17,5.5,46.8,4.1,70.2v1.4c0,1.8-0.5,3.2-0.5,5v2.3c0,1.8,0.9,3.7,2.8,4.6c1.8,0.9,4.1,1.4,6.4,1.4c0,0,0.5,0,0.9,0
	c5-0.5,10.6-1.8,16.5-4.6c2.3-0.9,4.6-0.9,5.5-0.9c2.3,0,4.1,0.5,6.4,1.4c5,1.8,8.7,5.5,8.7,9.2c0,1.4-0.5,3.7-3.2,6.4
	c-2.8,2.8-6.9,5-12.8,7.8c-0.9,0.5-2.3,0.9-3.2,0.9l-1.4,0.5c-7.3,2.3-18.8,6-22.5,14.2c-1.8,4.1-1.4,9.6,1.8,16.1
	c0,0.5,0,0.5,0.5,0.9c4.1,9.2,27.1,54.1,74.3,61.9c1.8,0.5,3.2,1.8,3.2,4.1C425.4,345.6,424.9,346.5,424.9,347z"/>
</svg>
